<svg id="arr_large" data-name="arr large" xmlns="http://www.w3.org/2000/svg" width="70" height="141" viewBox="0 0 70 141">
  <defs>
    <style>
      .cls-1 {
        fill: #fff;
      }

      .cls-1, .cls-2, .cls-3, .cls-4, .cls-5, .cls-6 {
        fill-rule: evenodd;
      }

      .cls-2 {
        fill: #1a7dff;
      }

      .cls-3 {
        fill: #e65639;
      }

      .cls-4 {
        fill: #cc3b44;
      }

      .cls-5 {
        fill: #04b384;
      }

      .cls-6 {
        fill: #4d4d99;
      }
    </style>
  </defs>
  <path id="note" class="cls-1" d="M16,141a16,16,0,1,1,16-16A16,16,0,0,1,16,141Zm0-30a14,14,0,1,0,14,14A14,14,0,0,0,16,111Zm3.139,10.553c-0.051-.051-0.09-0.11-0.139-0.163l-0.015,9.547c-0.476,2.13-2.577,3.363-4.985,3.363-2.761,0-5-1.539-5-4.3s2.239-4.227,5-4.227a6.025,6.025,0,0,1,3,.739V116h2v0.838a5.15,5.15,0,0,0,1.452,3.2,13.748,13.748,0,0,0,4.509,2.79l-0.821,1.727A16.467,16.467,0,0,1,19.139,121.553ZM14,127.7c-1.657,0-3,.643-3,2.3s1.343,2.3,3,2.3,3-.643,3-2.3S15.657,127.7,14,127.7Z"/>
  <path id="Rounded_Rectangle_1_copy_2" data-name="Rounded Rectangle 1 copy 2" class="cls-2" d="M29,89.453a1.491,1.491,0,0,1-.471,1.216L15.573,103.541a1.471,1.471,0,0,1-2.072,0,1.449,1.449,0,0,1,0-2.059l10.568-10.5H1.508a1.5,1.5,0,1,1,0-3H24.069L13.5,77.486a1.449,1.449,0,0,1,0-2.059,1.472,1.472,0,0,1,2.072,0L28.529,88.3A1.378,1.378,0,0,1,29,89.453Z"/>
  <path id="Rounded_Rectangle_1_copy_3" data-name="Rounded Rectangle 1 copy 3" class="cls-3" d="M63,89.453a1.491,1.491,0,0,1-.471,1.216L49.573,103.541a1.471,1.471,0,0,1-2.072,0,1.449,1.449,0,0,1,0-2.059l10.568-10.5H35.508a1.5,1.5,0,1,1,0-3H58.069L47.5,77.486a1.449,1.449,0,0,1,0-2.059,1.472,1.472,0,0,1,2.072,0L62.529,88.3A1.378,1.378,0,0,1,63,89.453Z"/>
  <path id="Rounded_Rectangle_1_copy_4" data-name="Rounded Rectangle 1 copy 4" class="cls-4" d="M45,34.983a1.031,1.031,0,0,1-.325.84L35.74,44.714a1.014,1.014,0,0,1-1.429,0,1,1,0,0,1,0-1.422L41.6,36.009H26.04A1.011,1.011,0,0,1,25,35a1.038,1.038,0,0,1,1.04-1.035H41.6l-7.288-7.253a1,1,0,0,1,0-1.422,1.014,1.014,0,0,1,1.429,0l8.935,8.891A0.952,0.952,0,0,1,45,34.983Z"/>
  <path id="Rounded_Rectangle_1_copy_6" data-name="Rounded Rectangle 1 copy 6" class="cls-5" d="M70,34.983a1.031,1.031,0,0,1-.325.84L60.74,44.714a1.014,1.014,0,0,1-1.429,0,1,1,0,0,1,0-1.422L66.6,36.009H51.04A1.011,1.011,0,0,1,50,35a1.038,1.038,0,0,1,1.04-1.035H66.6l-7.288-7.253a1,1,0,0,1,0-1.422,1.014,1.014,0,0,1,1.429,0l8.935,8.891A0.952,0.952,0,0,1,70,34.983Z"/>
  <path id="Rounded_Rectangle_1_copy_5" data-name="Rounded Rectangle 1 copy 5" class="cls-6" d="M20,34.983a1.031,1.031,0,0,1-.325.84L10.74,44.714a1.014,1.014,0,0,1-1.429,0,1,1,0,0,1,0-1.422L16.6,36.009H1.04A1.011,1.011,0,0,1,0,35,1.037,1.037,0,0,1,1.04,33.97H16.6L9.311,26.717a1,1,0,0,1,0-1.422,1.014,1.014,0,0,1,1.429,0l8.935,8.891A0.952,0.952,0,0,1,20,34.983Z"/>
  <path id="Rounded_Rectangle_1_copy_4-2" data-name="Rounded Rectangle 1 copy 4" class="cls-4" d="M25,59.983a1.031,1.031,0,0,0,.325.84l8.935,8.892a1.014,1.014,0,0,0,1.429,0,1,1,0,0,0,0-1.422L28.4,61.009H43.96A1.011,1.011,0,0,0,45,60a1.038,1.038,0,0,0-1.04-1.035H28.4l7.288-7.253a1,1,0,0,0,0-1.422,1.014,1.014,0,0,0-1.429,0l-8.935,8.892A0.952,0.952,0,0,0,25,59.983Z"/>
  <path id="Rounded_Rectangle_1_copy_6-2" data-name="Rounded Rectangle 1 copy 6" class="cls-5" d="M50,59.983a1.031,1.031,0,0,0,.325.84l8.935,8.892a1.014,1.014,0,0,0,1.429,0,1,1,0,0,0,0-1.422L53.4,61.009H68.96A1.011,1.011,0,0,0,70,60a1.038,1.038,0,0,0-1.04-1.035H53.4l7.288-7.253a1,1,0,0,0,0-1.422,1.014,1.014,0,0,0-1.429,0l-8.935,8.892A0.952,0.952,0,0,0,50,59.983Z"/>
  <path id="Rounded_Rectangle_1_copy_5-2" data-name="Rounded Rectangle 1 copy 5" class="cls-6" d="M0,59.983a1.031,1.031,0,0,0,.325.84L9.26,69.714a1.014,1.014,0,0,0,1.429,0,1,1,0,0,0,0-1.422L3.4,61.009H18.96A1.011,1.011,0,0,0,20,60a1.038,1.038,0,0,0-1.04-1.035H3.4l7.288-7.253a1,1,0,0,0,0-1.422,1.014,1.014,0,0,0-1.429,0L0.325,59.187A0.952,0.952,0,0,0,0,59.983Z"/>
  <path id="_2_copy" data-name="2 copy" class="cls-1" d="M6,0h8a6,6,0,0,1,6,6v8a6,6,0,0,1-6,6H6a6,6,0,0,1-6-6V6A6,6,0,0,1,6,0ZM6.688,1.688h6.625a5,5,0,0,1,5,5v6.625a5,5,0,0,1-5,5H6.688a5,5,0,0,1-5-5V6.687A5,5,0,0,1,6.688,1.688ZM10,15.012A5.009,5.009,0,1,1,15.013,10,5.009,5.009,0,0,1,10,15.012Zm0-8.356A3.344,3.344,0,1,1,6.656,10,3.344,3.344,0,0,1,10,6.656Zm5.172-2.937a1.2,1.2,0,1,1-1.2,1.2A1.2,1.2,0,0,1,15.172,3.719Z"/>
  <path id="Rounded_Rectangle_1_copy_7" data-name="Rounded Rectangle 1 copy 7" class="cls-4" d="M41,6.983a1.031,1.031,0,0,1-.325.84L34.74,13.714a1.014,1.014,0,0,1-1.429,0,1,1,0,0,1,0-1.422L37.6,8.009H26.04A1.011,1.011,0,0,1,25,7,1.038,1.038,0,0,1,26.04,5.97H37.6L33.311,1.717a1,1,0,0,1,0-1.422A1.014,1.014,0,0,1,34.74.3l5.935,5.891A0.952,0.952,0,0,1,41,6.983Z"/>
  <path id="Rounded_Rectangle_1_copy_8" data-name="Rounded Rectangle 1 copy 8" class="cls-5" d="M66,6.983a1.031,1.031,0,0,1-.325.84L59.74,13.714a1.014,1.014,0,0,1-1.429,0,1,1,0,0,1,0-1.422L62.6,8.009H51.04A1.011,1.011,0,0,1,50,7,1.038,1.038,0,0,1,51.04,5.97H62.6L58.311,1.717a1,1,0,0,1,0-1.422A1.014,1.014,0,0,1,59.74.3l5.935,5.891A0.952,0.952,0,0,1,66,6.983Z"/>
</svg>
